<?xml version="1.0" standalone="no"?><!DOCTYPE svg PUBLIC "-//W3C//DTD SVG 1.1//EN" "http://www.w3.org/Graphics/SVG/1.1/DTD/svg11.dtd"><svg t="1729477609436" class="icon" viewBox="0 0 1269 1024" version="1.1" xmlns="http://www.w3.org/2000/svg" p-id="38982" id="mx_n_1729477609437" xmlns:xlink="http://www.w3.org/1999/xlink" width="247.8515625" height="200"><path d="M751.424512 922.19392a712.66304 712.66304 0 0 1-417.28-98.46784 590.76608 590.76608 0 0 1-285.94176 153.00608c237.69088 51.6096 623.86176 86.65088 810.35264-69.71392 6.69696-5.69344 13.18912-11.79648 19.68128-17.92a280.82176 280.82176 0 0 1-126.81216 33.09568zM1121.047552 354.46784a433.23392 433.23392 0 0 1 136.27392-118.1696c-98.46784-5.69344-129.18784-34.44736-167.19872-64.18432-48.2304-38.01088-102.78912-80.93696-185.30304-78.76608-140.00128 2.94912-199.4752 87.81824-232.16128 151.63392-10.4448 19.68128-33.66912 78.76608-77.0048 170.72128a736.29696 736.29696 0 0 0 91.56608-12.00128 263.4752 263.4752 0 0 1 321.78176 313.87648c78.76608-154.58304 59.86304-290.44736 112.04608-363.1104zM387.699712 0a699.26912 699.26912 0 0 0-60.64128 381.05088 703.22176 703.22176 0 0 0 252.84608 35.4304c19.68128-39.38304 34.46784-74.21952 46.4896-101.21216A712.45824 712.45824 0 0 1 387.699712 0z" fill="#696cff" p-id="38983"></path><path d="M980.247552 557.30176a252.06784 252.06784 0 0 0-162.46784-139.24352c-98.44736-26.37824-128 17.14176-289.0752 12.61568a712.45824 712.45824 0 0 1-527.7696-256 699.47392 699.47392 0 0 0 671.5392 735.10912 512 512 0 0 0 139.59168-9.64608 248.91392 248.91392 0 0 0 168.18176-342.8352z" fill="#696cff" p-id="38984"></path></svg>