<?xml version="1.0" standalone="no"?><!DOCTYPE svg PUBLIC "-//W3C//DTD SVG 1.1//EN" "http://www.w3.org/Graphics/SVG/1.1/DTD/svg11.dtd"><svg t="1727334176215" class="icon" viewBox="0 0 1024 1024" version="1.1" xmlns="http://www.w3.org/2000/svg" p-id="1937" xmlns:xlink="http://www.w3.org/1999/xlink" width="200" height="200"><path d="M604.813241 0l-153.688275 282.094345 283.489103 94.384552L938.160552 0H604.813241z" fill="#FFFFFF" p-id="1938"></path><path d="M600.046345 0l-148.921379 284.813241 86.528 31.426207L694.642759 0h-94.596414z" fill="#2157CC" p-id="1939"></path><path d="M648.986483 345.335172l88.187586 31.143725L938.160552 0h-96.397242l-192.794482 345.335172z" fill="#DF202A" p-id="1940"></path><path d="M419.186759 0l153.688275 282.094345-283.489103 94.384552L85.839448 0h333.347311z" fill="#FFFFFF" p-id="1941"></path><path d="M408.717241 0l148.939035 284.813241-86.528 31.426207L314.138483 0h94.596414z" fill="#2378F1" p-id="1942"></path><path d="M375.013517 345.335172l-88.187586 31.143725L85.839448 0h96.397242l192.794482 345.335172z" fill="#F5222D" p-id="1943"></path><path d="M209.125517 283.61269l184.002207 9.163034 119.913931-127.117241 119.896276 127.117241 192.264828-9.163034-9.304276 181.036138L953.37931 589.735724l-137.480827 117.971862 8.280276 189.175173-182.960552-8.139035L512 1024l-129.218207-135.256276-182.960552 8.121379 8.280276-189.157517L70.62069 589.735724l138.504827-125.086896-8.26262-181.036138h8.26262z" fill="#FFDA35" p-id="1944"></path><path d="M283.700966 572.239448c0 124.38069 104.96 225.880276 235.908413 225.880276s235.908414-100.510897 235.908414-225.880276c0-124.38069-104.96-225.880276-235.908414-225.880276s-235.908414 101.499586-235.908413 225.880276z" fill="#FABA00" p-id="1945"></path><path d="M570.120828 676.193103l-51.500138-30.27862-51.482483 30.260965a7.256276 7.256276 0 0 1-8.756966 0c-2.913103-1.942069-4.855172-5.843862-2.913103-8.77462l12.641103-61.510621-43.731862-41.012966c-2.913103-2.930759-4.855172-5.861517-2.913103-8.792275 1.942069-2.930759 4.855172-5.861517 7.768276-5.861518l59.268414-5.843862 24.293517-56.637793c1.942069-2.930759 4.855172-5.861517 7.768276-5.861517 2.930759 0 5.826207 2.930759 7.768275 5.861517l24.311173 56.637793 59.268414 5.843862c2.913103 0 5.826207 2.930759 5.826207 5.861518 1.942069 2.930759 0 7.821241-1.942069 8.792275l-43.731862 41.012966 12.641103 61.510621c0 2.930759 0 7.803586-2.913103 8.77462-3.884138 1.959724-8.756966 1.959724-11.652414 0z" fill="#FFD81F" p-id="1946"></path></svg>