<svg xml:space="preserve" style="enable-background:new 0 0 1100 1100;" viewBox="0 0 1100 1100" y="0px" x="0px" xmlns:xlink="http://www.w3.org/1999/xlink" xmlns="http://www.w3.org/2000/svg" id="图层_1" version="1.1">
<style type="text/css">
	.st0{opacity:0.16;fill:#3B5A80;}
	.st1{fill:#F6BEA9;}
	.st2{fill:#F7C7B3;}
	.st3{fill:#F7C3B0;}
	.st4{fill:#F7B52C;}
	.st5{fill:#F7C8B5;}
	.st6{fill:#F29600;}
	.st7{fill:#00354E;}
	.st8{fill:#00293C;}
	.st9{fill:#F7B313;}
	.st10{fill:url(#SVGID_1_);}
	.st11{fill:#007DC5;}
	.st12{fill:#F3A88A;}
	.st13{fill:#008FD4;}
	.st14{fill:#053A60;}
	.st15{fill:#009FDE;}
	.st16{fill:#534E9E;}
	.st17{fill:#EFB08A;}
	.st18{fill:#605DA6;}
	.st19{fill:#CCDCE3;}
	.st20{fill:#E99980;}
	.st21{fill:#F6BEA7;}
	.st22{fill:url(#SVGID_3_);}
	.st23{fill:url(#SVGID_4_);}
	.st24{fill:url(#SVGID_5_);}
	.st25{fill:url(#SVGID_6_);}
	.st26{fill:url(#SVGID_7_);}
	.st27{fill:#F2AE93;}
	.st28{fill:#E63B8A;}
	.st29{fill:#F3ECC4;}
	.st30{fill:none;stroke:#FDF6ED;stroke-width:0.7954;stroke-miterlimit:10;}
	.st31{fill:#E74893;}
</style>
<g>
	<path d="M907.08,788.05c-37.64,6.38-26.07,39.23-22.56,40.65c12.58,5.07,86.82-0.59,105.25-3.12
		c11.51-1.58,59.33-10.27,69.38-20.31C1064.64,799.8,1063.75,761.47,907.08,788.05z" class="st0"></path>
	<g>
		<g>
			<g>
				<g>
					<path d="M787.39,741.63c0.52,2.97,0.85,6.52-1.39,8.54c-2.54,2.29-6.87,0.86-8.92-1.88
						c-2.05-2.74-1.46-6.75-3.31-9.63c-9.98-15.61-20.86-34.5-26.03-53.84c-0.67-2.51-1.14-5.19-0.41-7.68s2.99-4.71,5.59-4.59
						c1.99,0.09,3.67,1.44,5.11,2.81C776.81,693.11,783.11,717.02,787.39,741.63z" class="st1"></path>
					<g>
						<path d="M776.56,747.21c-2.28,3.49-0.31,8.05,1.18,11.94c1.88,4.91,2.92,10.15,3.05,15.41
							c0.07,2.81-0.11,5.65,0.48,8.4c0.6,2.75,2.14,5.47,4.69,6.63c1.27,0.58,2.7,0.73,4.09,0.84c3.13,0.23,6.43,0.22,9.18-1.29
							c4.74-2.61,6.24-9.01,4.89-14.25c-1.35-5.24-4.88-9.59-8.25-13.82c-1.74-2.18-3.49-4.38-4.91-6.79
							c-1.26-2.12-1.73-5.29-3.19-7.17C785.22,743.83,778.93,743.59,776.56,747.21z" class="st2"></path>
						<g>
							<path d="M796.72,795.57c0.78,1.32,1.18,3.19,0.08,4.25c-1.18,1.14-3.26,0.45-4.3-0.82
								c-1.04-1.27-1.46-2.93-2.28-4.35c-0.84-1.46-2.1-2.63-3.15-3.95c-0.4-0.5-0.78-1.06-0.84-1.7c-0.35-3.51,4.71-2.58,6.18-1.04
								C794.08,789.71,795.46,793.45,796.72,795.57z" class="st3"></path>
							<path d="M799.92,795.29c0.54,1,1.44,2.17,2.54,1.87c1.11-0.31,1.26-1.81,1.18-2.96c1.08-0.09,1.89-1.37,1.5-2.39
								c-0.1-0.26-0.27-0.51-0.3-0.79c-0.06-0.55,0.38-1.01,0.62-1.5c0.53-1.11,0-2.4-0.06-3.62c-0.05-1,0.22-1.98,0.34-2.97
								c0.27-2.22-0.22-4.53-1.38-6.44c-0.33-0.01-0.51,0.37-0.59,0.69c-0.34,1.41-0.42,2.86-0.72,4.28
								c-0.3,1.41-0.87,2.84-1.98,3.77c-1.19,1-4.52,1.65-4.5,3.55c0.01,0.99,1.07,2.28,1.52,3.12
								C798.7,793.02,799.31,794.15,799.92,795.29z" class="st3"></path>
						</g>
					</g>
					<path d="M778.76,743.98c3.19-1.14,7,0.06,9.17,2.67c1.75,2.11,2.44,4.88,3.64,7.35c2.03,4.15,5.52,7.38,8.23,11.12
						c5.03,6.94,7.34,15.81,6.33,24.33c-0.31,2.57-0.92,5.15-2.33,7.33c-1.4,2.17-3.69,3.88-6.27,4.09
						c-4.12,0.34-7.52-2.98-10.3-6.03c-3.43-3.77-6.98-7.78-8.07-12.75c-0.8-3.69-0.15-7.53-0.25-11.31
						c-0.16-5.93-2.31-11.23-4.21-16.74C773.31,750.04,774.24,745.6,778.76,743.98z" class="st4"></path>
				</g>
				<g>
					<path d="M580.95,743.2c-1.11,2.81-2.15,6.21-0.37,8.64c2.03,2.76,6.56,2.24,9.12-0.03
						c2.56-2.27,2.8-6.31,5.19-8.76c12.94-13.27,27.42-29.56,36.39-47.45c1.17-2.32,2.17-4.85,1.96-7.44
						c-0.21-2.59-1.98-5.21-4.54-5.63c-1.96-0.32-3.89,0.67-5.58,1.71C601.14,697.83,590.12,719.97,580.95,743.2z" class="st5"></path>
					<g>
						<path d="M588.12,752.3c1.48,3.9-1.42,7.93-3.71,11.41c-2.89,4.4-5.02,9.29-6.27,14.4
							c-0.67,2.73-1.1,5.55-2.27,8.1c-1.17,2.56-3.26,4.89-6.01,5.48c-1.37,0.29-2.79,0.14-4.17-0.06c-3.1-0.44-6.33-1.16-8.69-3.22
							c-4.07-3.56-4.16-10.14-1.73-14.96c2.44-4.83,6.81-8.33,11.02-11.73c2.17-1.75,4.34-3.54,6.25-5.58
							c1.68-1.8,2.82-4.8,4.65-6.32C580.38,747.15,586.58,748.26,588.12,752.3z" class="st2"></path>
						<g>
							<path d="M558.09,795.23c-1.05,1.12-1.84,2.86-0.98,4.13c0.91,1.36,3.09,1.13,4.38,0.12
								c1.29-1.02,2.05-2.55,3.16-3.76c1.14-1.24,2.61-2.12,3.92-3.18c0.5-0.41,0.99-0.87,1.19-1.48c1.09-3.36-4.05-3.53-5.82-2.34
								C561.92,790.07,559.77,793.42,558.09,795.23z" class="st3"></path>
							<path d="M555.02,794.26c-0.74,0.86-1.87,1.82-2.88,1.28c-1.02-0.54-0.84-2.03-0.52-3.14
								c-1.04-0.32-1.55-1.74-0.95-2.65c0.15-0.24,0.37-0.44,0.46-0.7c0.18-0.52-0.16-1.06-0.29-1.6c-0.28-1.19,0.51-2.34,0.84-3.52
								c0.26-0.96,0.21-1.98,0.3-2.98c0.21-2.23,1.18-4.38,2.72-6c0.32,0.06,0.42,0.47,0.43,0.8c0.03,1.45-0.2,2.89-0.21,4.33
								c-0.01,1.45,0.25,2.96,1.13,4.11c0.95,1.23,4.07,2.58,3.64,4.43c-0.22,0.97-1.53,2-2.15,2.72
								C556.7,792.31,555.86,793.29,555.02,794.26z" class="st3"></path>
						</g>
					</g>
					<path d="M586.26,749.34c1.96,1.28,3.31,3.59,3.09,5.92c-0.14,1.4-0.81,2.69-1.51,3.92
						c-3.26,5.74-7.39,11.11-9.29,17.44c-1.18,3.93-1.45,8.12-2.94,11.93c-2.61,6.65-9.09,11.61-16.19,12.38
						c-3.92,0.43-8.31-0.57-10.65-3.74c-2.46-3.34-1.95-8-0.71-11.96c2.23-7.11,6.48-13.57,12.12-18.42
						c4.25-3.66,9.38-6.55,12.33-11.32c0.97-1.57,1.68-3.31,2.75-4.82C577.8,747.09,582.71,747.01,586.26,749.34z" class="st6"></path>
				</g>
				<g>
					<path d="M732.88,539.95l30.91,121.27c0,0-26.25,10-30.56-0.03c-4.29-10.03-53.41-76.2-47.91-99.83
						C690.82,537.72,732.88,539.95,732.88,539.95z" class="st7"></path>
					<path d="M716.25,558.07l-58.54,110.61c0,0-26.17-10.22-22.62-20.55c3.55-10.31,11.61-92.33,31.55-106.14
						C686.59,528.17,716.25,558.07,716.25,558.07z" class="st7"></path>
					<polygon points="763.79,661.22 782.81,715.91 761.41,723.04 732.88,661.22" class="st8"></polygon>
					<polygon points="657.58,668.35 606.86,730.18 590.21,720.66 635.39,646.95" class="st8"></polygon>
				</g>
			</g>
			<g>
				<g>
					<g>
						<path d="M663.73,286.32l-12.88,2.18l-0.79,62.81l1.68,1.54c4.03,3.7,10.49,2.53,12.96-2.35l3.59-3.94
							L663.73,286.32z" class="st1"></path>
						<g>
							<path d="M668.08,271.46c0,0-0.79,6.34-1.78,9.91c-0.99,3.57-2.58,4.95-2.58,4.95l-12.88,2.18
								c0,0-1.98-8.72-1.98-12.09c0-3.37,0-3.96,1.19-4.95c1.19-0.99,13.47-2.18,15.26-1.98
								C667.09,269.67,668.08,271.46,668.08,271.46z" class="st1"></path>
							<path d="M663.08,271.58l4.82,0.77l1.35-8.45c0.21-1.33-0.69-2.58-2.03-2.79l0,0c-1.33-0.21-2.58,0.69-2.79,2.03
								L663.08,271.58z" class="st1"></path>
							<path d="M648.76,276.22l4.29,0.31l0.6-8.23c0.09-1.19-0.8-2.22-1.99-2.3l0,0c-1.19-0.09-2.22,0.8-2.3,1.99
								L648.76,276.22z" class="st1"></path>
							<path d="M658.21,273.05l5.44,0.43l0.6-7.65c0.12-1.5-1-2.81-2.51-2.93h0c-1.5-0.12-2.81,1-2.93,2.51
								L658.21,273.05z" class="st1"></path>
							<path d="M653.15,274.34l4.89,0.46l0.74-7.92c0.13-1.35-0.86-2.55-2.21-2.67l0,0c-1.35-0.13-2.55,0.86-2.67,2.21
								L653.15,274.34z" class="st1"></path>
						</g>
					</g>
					<path d="M674.2,427.47l-4.49-79.77l0.18-4.62l-22.81,0.44c0,0,4.2,61.59,5.08,64.6c0.87,3,2.18,28.82,1.67,33.42
						c-0.51,4.59-0.42,27.72,14.84,26C683.94,465.83,674.2,427.47,674.2,427.47z" class="st9"></path>
				</g>
				<linearGradient y2="490.1249" x2="740.0134" y1="490.1249" x1="652.8273" gradientUnits="userSpaceOnUse" id="SVGID_1_">
					<stop style="stop-color:#F7B313" offset="3.064900e-03"></stop>
					<stop style="stop-color:#F08D08" offset="0.9991"></stop>
				</linearGradient>
				<path d="M689.13,416.52c0,0,27.19,0.84,33.72,3.27c6.53,2.42,6.16,32.81,2.78,55.38
					c-3.39,22.57-0.71,47.57,5.74,61.45c6.45,13.88,8.65,27.11,8.65,27.11l-87.19-1.59c0,0,14.98-39.68,14.26-61.23
					c-0.72-21.56-8.35-70.61-8.05-75.46C659.33,420.6,683.14,416.72,689.13,416.52z" class="st10"></path>
				<g>
					<g>
						<g>
							<path d="M742.56,595.74l10.51-4.59l5.83-56.3l-1.56-1.65c-3.76-3.98-10.29-3.26-13.1,1.44l-3.86,3.68
								L742.56,595.74z" class="st1"></path>
						</g>
						<path d="M736.78,619.81c0.03,0.57,0.15,1.27,0.68,1.48c0.8,0.33,1.44-0.71,1.69-1.53
							c0.67-2.24,0.79-5.82,1.46-8.07c-0.87,4.46-0.24,10.44,0.77,14.87c2.77,2.94,3.81-7.25,4.22-11.29
							c-0.53,4.2-0.99,8.76,1.16,12.41c2.42,3.05,3.76-10.38,3.83-17.54c0.19,3.87,0.27,12.36,1.86,12.34
							c4.46,1.31,2.83-13.94,2.64-20.51c0.36,1.65,1.65,5.15,2.28,5.81c2.3,2.45,2.75-1.31,2.43-3.33
							c-0.88-5.67-1.99-8.71-3.49-14.25c-0.15-0.54-1.37-2.38-1.77-2.78c-0.47-0.47-1.16-0.62-1.82-0.7
							C736.63,584.84,736.2,608.74,736.78,619.81z" class="st1"></path>
					</g>
					<path d="M726,468.71l12.22,78.96l0.27,4.62l22.66-2.66c0,0-10.17-60.89-11.34-63.8
						c-1.16-2.91-4.97-28.47-4.91-33.1c0.06-4.62-2.28-27.63-17.3-24.44C712.58,431.48,726,468.71,726,468.71z" class="st9"></path>
				</g>
			</g>
			<g>
				<path d="M726.84,382.32c-0.74,4.74-2.28,9.58-1.16,14.25c1.09,4.57,4.52,8.13,7.26,11.95
					c6.61,9.23,9.48,21.41,6.27,32.3c-3.21,10.89-12.99,19.92-24.29,20.93c0.25,9.79-1.33,20.03-7.01,28.02
					c-5.68,7.98-16.18,13.06-25.55,10.19c-9.36-2.88-15.22-15.19-9.81-23.36c-5.19,5.16-13.47,7.91-20.02,4.66
					c-6.56-3.25-8.85-13.69-3.02-18.11c-8.57,1.52-17.86-3.53-21.23-11.56c-3.37-8.02-0.48-18.2,6.61-23.25
					c6.13-4.37,14.86-5.26,19.24-11.38c7.49-10.47-3.98-26.19,2.02-37.58c3.36-6.38,11.61-9.85,13.03-16.92
					c0.52-2.58,0-5.25,0.2-7.87c1.42-18.64,26.44-16.75,38.58-11.36C723.08,349.92,729.46,365.61,726.84,382.32z" class="st8"></path>
			</g>
		</g>
		<g>
			<path d="M542.44,614.77c0.05,0.05,0.1,0.1,0.15,0.15" class="st2"></path>
			<g>
				<g>
					<g>
						<g>
							<path d="M353.35,747.19c0.91,0.39,4.35,0.95,5.26,0.55c0.88-0.39,0.12-1.28,0.05-2.24
								c-0.07-0.96-0.52-1.85-0.98-2.69c-2.55-4.69-5.66-9.31-10.22-12.05c-2.75-1.65-6.1-2.47-9.29-2.06
								c-1.28,0.17-4.53,1.31-5.16,2.57c-0.42,0.83,1.1,2.62,2.35,3.81C340.99,740.4,345.81,743.94,353.35,747.19z" class="st11"></path>
							<g>
								<path d="M324.71,757.66c-1.37,2.78-2.74,6.18-1.11,8.83c1.84,3,6.53,2.85,9.35,0.74
									c2.82-2.11,3.41-6.24,6.06-8.55c14.39-12.51,30.62-27.99,41.34-45.58c1.39-2.28,2.64-4.79,2.64-7.47
									c0-2.67-1.58-5.51-4.18-6.16c-1.99-0.49-4.04,0.36-5.86,1.29C349.26,712.84,336.09,734.61,324.71,757.66z" class="st12"></path>
								<g>
									<path d="M333.78,766.32c0.71,3.9-2.03,8.03-4.64,11.44c-3.28,4.3-5.83,9.17-7.49,14.32
										c-0.89,2.75-1.53,5.61-2.92,8.15c-1.39,2.54-3.7,4.78-6.56,5.18c-1.43,0.2-2.87-0.06-4.28-0.36
										c-3.15-0.68-6.41-1.65-8.68-3.94c-3.92-3.95-4.67-11.6-0.68-15.49c3.99-3.89,8.5-7.48,13.06-10.66
										c2.35-1.64,3.82-3.89,5.92-5.85c1.86-1.73,3.25-4.72,5.23-6.15C326.21,760.47,332.98,761.94,333.78,766.32z" class="st2"></path>
									<g>
										<path d="M299.82,808.2c-1.15,1.07-2.09,2.8-1.31,4.17c0.84,1.47,3.09,1.39,4.48,0.44
											c1.4-0.95,2.29-2.47,3.51-3.63c1.26-1.19,2.84-1.99,4.25-2.98c0.54-0.38,1.08-0.82,1.33-1.43c1.37-3.37-3.9-3.92-5.8-2.82
											C304.13,803.18,301.68,806.47,299.82,808.2z" class="st3"></path>
										<path d="M296.74,806.99c-0.83,0.83-2.05,1.73-3.05,1.1c-1.01-0.63-0.72-2.15-0.3-3.26
											c-1.04-0.4-1.47-1.9-0.79-2.79c0.18-0.23,0.41-0.42,0.52-0.69c0.22-0.52-0.09-1.1-0.18-1.67c-0.2-1.24,0.7-2.37,1.11-3.56
											c0.34-0.97,0.36-2.02,0.53-3.03c0.38-2.27,1.53-4.41,3.23-5.96c0.33,0.08,0.4,0.52,0.38,0.85
											c-0.07,1.49-0.42,2.95-0.53,4.43c-0.11,1.48,0.04,3.06,0.86,4.3c0.88,1.33,3.99,2.94,3.41,4.81
											c-0.3,0.98-1.72,1.94-2.41,2.64C298.61,805.1,297.68,806.04,296.74,806.99z" class="st3"></path>
									</g>
								</g>
							</g>
							<path d="M421.37,580.01c0,0-25.85,64.81-31.67,73.71c-5.83,8.9-8.38,17.02-8.38,17.02l25.88,17.47l62.71-55.47
								l-6.62-55.55L421.37,580.01z" class="st11"></path>
							<path d="M381.32,670.74c0,0-16.93,15.89-23.82,28.04c-6.89,12.15-13.83,28.57-13.83,28.57L360,742.24
								l47.2-54.04L381.32,670.74z" class="st11"></path>
							<path d="M341.94,719.37c0,0,9.76,1.96,18.25,8.19c8.48,6.23,10.25,11.76,10.25,11.76l-11.73,8.41
								c0,0-10.22-13.59-16.32-14.9c-6.1-1.3-9.49-1.51-9.49-1.51L341.94,719.37z" class="st13"></path>
							<path d="M332.16,760.85c2.58,2.03,2.45,5.6,2.21,6.83c-1.29,6.83-7.03,12.92-8.67,16.24
								c-4.59,9.3-4.8,17.72-11.78,25.38c-2.62,2.88-6.19,4.98-10.06,5.44c-3.87,0.46-8-0.86-10.58-3.78
								c-3.35-3.8-3.58-9.62-1.72-14.34c1.86-4.71,5.1-10.42,8.86-13.81c3.76-3.39,9.44-6.7,12.55-10.7
								C315.67,768.63,323.42,753.98,332.16,760.85z" class="st14"></path>
						</g>
					</g>
					<g>
						<path d="M463.3,577.18l47.05-6.87c0,0,45.21,93.72,45.74,100.45c0.52,6.74,3.49,14.12-3.91,18.3
							c-7.4,4.19-11.72,7.19-32.87-12.66c-21.15-19.85-49.39-43.67-49.39-43.67L463.3,577.18z" class="st11"></path>
						<g>
							<path d="M529.63,683.71c3.77,3.75,8.56,6.79,13.85,7.23c5.3,0.44,11.06-2.26,13.03-7.2
								c1.34-3.36,0.79-7.24-0.68-10.55c-1.47-3.31-3.78-6.16-6.06-8.96c-5.42-6.65-10.83-13.3-16.25-19.96
								c-6.9-8.47-21.54-0.11-19.94,9.94C515.15,664.06,522.68,676.81,529.63,683.71z" class="st15"></path>
							<g>
								<g>
									<path d="M506.78,645.19c1.93,2.66,4.13,5.21,5.3,8.29c0.68,1.79,1.06,3.83,2.47,5.13
										c1.66,1.53,4.32,1.51,6.37,0.56c2.05-0.95,3.63-2.66,5.16-4.33c1.57-1.71,3.14-3.42,4.7-5.13c1.37-1.49,2.84-3.4,2.24-5.33
										c-0.4-1.29-1.61-2.13-2.75-2.86c-4.78-3.1-15.64-13.39-21.61-12.53C499.81,630.27,504.14,640.66,506.78,645.19z" class="st2"></path>
									<path d="M524.42,657.78c-0.14-0.23-0.32-0.45-0.52-0.63c-3-2.72-8.32,0.35-5.79,4.14
										C520.66,665.12,526.94,661.86,524.42,657.78z" class="st2"></path>
									<path d="M523.55,655.86c0.38,0.52,0.8,1.05,1.36,1.37c1.33,0.78,3.26,0.09,3.87-1.32
										c0.61-1.41-0.14-3.23-1.54-3.88c-0.82-0.38-1.83-0.37-2.62,0.09c-0.78,0.46-1.3,1.37-1.23,2.27" class="st2"></path>
									<path d="M527.83,651.82c0.27,0.37,0.56,0.74,0.96,0.97c0.94,0.55,2.29,0.07,2.72-0.93
										c0.43-0.99-0.1-2.28-1.08-2.73c-0.58-0.27-1.29-0.26-1.84,0.06c-0.55,0.32-0.92,0.96-0.86,1.6" class="st2"></path>
									<path d="M530.16,649.25c0.27,0.37,0.56,0.74,0.96,0.97c0.94,0.55,2.29,0.07,2.72-0.93
										c0.43-0.99-0.1-2.28-1.08-2.73c-0.58-0.27-1.29-0.26-1.84,0.06c-0.55,0.32-0.92,0.96-0.86,1.6" class="st2"></path>
									<path d="M530.81,646.66c0.27,0.37,0.56,0.74,0.96,0.97c0.94,0.55,2.29,0.07,2.72-0.93
										c0.43-0.99-0.1-2.28-1.08-2.73c-0.58-0.27-1.29-0.26-1.84,0.06c-0.55,0.32-0.92,0.96-0.86,1.6" class="st2"></path>
								</g>
								<path d="M503.45,640.7c1.6,3.39,4.25,6.17,6.08,9.45c2.59,4.64,3.69,10.45,7.96,13.62
									c2.84,2.1,7.18,2.59,10.59,1.64c3.41-0.95,6.52-2.91,8.72-5.67c1.53-1.93,2.21-6.37-0.69-12.46
									c-1.06-2.22-6.28-7.29-9.83-9.27c-2.67-1.49-3.53-2.11-5.67-4.29c-2.15-2.18-4.84-3.96-7.7-5.04
									C504.71,625.6,500.19,633.81,503.45,640.7z" class="st14"></path>
							</g>
						</g>
					</g>
				</g>
				<g>
					<g>
						<path d="M365.2,346.78c-0.7,2-7.02,24.37-4.51,37.8c2.51,13.43,4.77,21.05,4.77,21.05l22.56-9.98
							c0,0-10.92-35.99-11.85-41.7s-1.24-8.06-1.24-8.06L365.2,346.78z" class="st1"></path>
						<g>
							<path d="M373.28,317.84c-0.32,1.3-0.16,4.69,0.07,5.35c0.24,0.67-2.49,5.98-2.49,5.98l6.7,4.78
								c0,0,0.9-9.87,0.87-11.66c-0.03-1.79-1.34-6.38-2.47-7.03C374.84,314.61,373.5,316.94,373.28,317.84z" class="st1"></path>
							<path d="M355.9,331.54c-0.35,0.23-0.81,0.28-1.15,0.54c-0.98,0.76-0.1,2.36-0.43,3.56
								c-0.1,0.38-0.33,0.72-0.38,1.1c-0.06,0.41,0.08,0.82,0.23,1.2c1.36,3.49,3.86,6.52,7.03,8.51c1.01,0.63,2.1,1.17,3.27,1.4
								c0.98,0.19,1.99,0.15,2.98,0.1c2.57-0.14,5.13-0.4,7.67-0.79c-0.26-2.82,1.06-5.5,1.88-8.2c0.83-2.7,1.04-6.01-0.96-8.01
								c-0.64-0.64-1.44-1.07-2.24-1.5c-2.48-1.33-4.98-2.68-7.72-3.35c-2.28-0.56-5.85-0.85-7.9,0.63
								C356.49,327.95,357.45,330.51,355.9,331.54z" class="st1"></path>
						</g>
					</g>
					<g>
						<path d="M529.51,289.53l15.31,6.05l-15.43,77.65l-2.47,1.46c-5.94,3.51-13.59,0.38-15.37-6.29l-3.4-5.8
							L529.51,289.53z" class="st1"></path>
						<g>
							<path d="M528.02,270.06c0,0-0.68,8.02-0.39,12.68c0.29,4.66,1.88,6.78,1.88,6.78l15.31,6.05
								c0,0,4.72-10.23,5.6-14.38c0.88-4.15,1.04-4.89-0.17-6.42c-1.21-1.53-16.04-6.21-18.29-6.43
								C529.71,268.13,528.02,270.06,528.02,270.06z" class="st1"></path>
							<path d="M534.15,271.53l-6.14-0.31l0.54-10.77c0.09-1.7,1.53-3,3.23-2.92l0,0c1.7,0.09,3,1.53,2.92,3.23
								L534.15,271.53z" class="st1"></path>
							<path d="M550.6,280.98l-5.38-0.73l1.41-10.31c0.2-1.48,1.57-2.52,3.05-2.32l0,0c1.48,0.2,2.52,1.57,2.32,3.05
								L550.6,280.98z" class="st1"></path>
							<path d="M539.78,274.61l-6.82-0.89l1.26-9.59c0.25-1.88,1.97-3.21,3.85-2.96l0,0c1.88,0.25,3.21,1.97,2.96,3.86
								L539.78,274.61z" class="st1"></path>
							<path d="M545.68,277.52l-6.14-0.71l1.15-9.95c0.2-1.7,1.73-2.91,3.43-2.72l0,0c1.7,0.2,2.91,1.73,2.72,3.43
								L545.68,277.52z" class="st1"></path>
						</g>
					</g>
					<g>
						<g>
							<path d="M376.81,353.6l14.39,45.39l42.15,39.81l-30.58,32.44c0,0-38.24-51.24-40.92-60.62
								c-6.64-23.25-2.21-57.02-2.21-57.02H376.81z" class="st16"></path>
							<path d="M524.62,298.24l21.04,6.09c0,0-2.94,39.05-10.52,73.07c-6.45,28.95-17.45,52.84-20.02,61.12
								c-5.6,18.02-9.71,25.34-9.71,25.34l-32.82-27.22c0,0,28.87-54.86,31-64.21C505.71,363.07,524.62,298.24,524.62,298.24z" class="st16"></path>
							<path d="M396.73,438.32l112.38-5.01c0,0,12.54,58.67,12.18,86.36c-0.36,27.69-10.38,44.01-10.38,44.01
								l-19.38,8.72l-70.44-1.8c0,0-3.79-9.82-10.52-42.07c-6.73-32.25-7.8-57.29-7.8-57.29L396.73,438.32z" class="st16"></path>
						</g>
						<g>
							<defs>
								<path d="M535.13,377.4c7.58-34.02,10.52-73.07,10.52-73.07l-21.04-6.09c0,0-18.9,64.83-21.04,74.18
									c-1.91,8.37-25.21,53.15-30.09,62.48l-42.26,1.88l-40.02-37.79l-14.39-45.39h-17.16c0,0-4.43,33.77,2.21,57.02
									c2.68,9.38,40.92,60.62,40.92,60.62s1.07,25.04,7.8,57.29c6.73,32.25,10.52,42.07,10.52,42.07l70.44,1.8l19.38-8.72
									c0,0,10.02-16.32,10.38-44.01c0.25-19.01-5.58-52.62-9.27-71.82c0.96-2.72,1.99-5.82,3.08-9.33
									C517.68,430.24,528.69,406.35,535.13,377.4z" id="SVGID_16_"></path>
							</defs>
							<clipPath id="SVGID_2_">
								<use style="overflow:visible;" xlink:href="#SVGID_16_"></use>
							</clipPath>
						</g>
					</g>
				</g>
				<g>
					<g>
						<rect height="26.57" width="23.62" class="st1" y="418.55" x="443.06"></rect>
						<ellipse ry="3.04" rx="11.73" cy="445.22" cx="454.83" class="st1"></ellipse>
					</g>
					<path d="M476.83,411.82c-0.72,4.78-2.94,10.32-9.39,12.04c-7.47,2-15.07-2.54-19.27-7.21
						c-8.46-9.39-20.29-46.09,5.26-50.04C478.29,362.77,478.27,402.27,476.83,411.82z" class="st17"></path>
					<path d="M428.53,368.37c-2.96-0.47-5.85-1.41-8.53-2.78c-0.02,6.26,2.75,12.47,7.38,16.52
						c-1.29,1.44-2.15,3.4-2.19,5.36c-0.36,21.34-0.75,24.3,5.34,31.27c6.68,7.64,25.93,6.33,34.67,2.41
						c6.98-3.13,7.54-7.84,8.74-16.58c1.22-8.85,1.91-15.34,0.9-25.93c-0.39-4.09-1.36-9.14-3.79-12.4
						c-2.43-3.26-7.61-4.63-10.46-1.75c1.29-2.61-2.15-5.28-4.98-5.06c-2.83,0.21-5.5,1.85-8.33,1.63
						c-2.02-0.16-3.85-1.25-5.65-2.23c-2.83-1.53-11.28-6.72-14.62-4.26C424.53,356.41,425.02,367.81,428.53,368.37z" class="st14"></path>
				</g>
				<g>
					<path d="M443.97,485.88c4.75,4.35,11,7.84,17.37,6.86c4.15-0.64,7.8-3.1,10.96-5.87
						c7.83-6.86,17.18-19.56,16.33-29.94c-1.66-20.48-4.24-24.73-19.38-25.46c-5.72,4.98-11.14,8.25-21.04,5.54
						c-4.16-1.14-13.35-4.93-17.35-2.21c-3.67,2.49-4.44,16.85-4.24,20.67C427.27,467.85,434.77,477.47,443.97,485.88z" class="st18"></path>
				</g>
				<g>
					<path d="M419.99,567.14c0,0,16.98,5.21,42.07,3.74c25.1-1.48,48.71-7.89,48.71-7.89l1.23,10.85
						c0,0-28.73,8.57-50.5,9.31c-21.77,0.74-40.13-3.14-40.13-3.14L419.99,567.14z" class="st11"></path>
				</g>
			</g>
		</g>
		<g>
			<g>
				<g>
					<g>
						<path d="M265.19,414.9c-12.1-13.77,31.7-55.35,51.57-70.68c4.89-3.77,12.39-2.74,15.22,2.74
							c1.54,2.98-14.94,26.17-14.94,26.17S278.37,429.89,265.19,414.9z" class="st17"></path>
						<path d="M319.93,354.53c-6.56-3.24-7.48-6.54-7.27-13.85c0.71-25.08,15.26-66.02,15.26-66.02l8.23,3.42
							l-1.95,53.87C334.21,331.95,333.26,361.1,319.93,354.53z" class="st17"></path>
					</g>
					<g>
						<path d="M326.63,260.19c0,0-0.47,5.56-0.26,8.99c0.21,3.43-1.11,11.9-1.11,11.9l10.52,1.11
							c0,0,6.72-10.73,7.37-13.79c0.65-3.06,0.76-3.6-0.13-4.73c-0.89-1.13-11.83-4.58-13.49-4.74
							C327.87,258.76,326.63,260.19,326.63,260.19z" class="st17"></path>
						<path d="M331.15,261.27l-4.53-0.23l0.4-7.95c0.06-1.25,1.13-2.21,2.38-2.15l0,0c1.25,0.06,2.21,1.13,2.15,2.38
							L331.15,261.27z" class="st17"></path>
						<path d="M343.28,268.24l-3.97-0.54l1.04-7.6c0.15-1.09,1.16-1.86,2.25-1.71l0,0c1.1,0.15,1.86,1.16,1.71,2.25
							L343.28,268.24z" class="st17"></path>
						<path d="M335.3,263.54l-5.03-0.66l0.93-7.08c0.18-1.39,1.46-2.37,2.84-2.18l0,0c1.39,0.18,2.37,1.46,2.18,2.84
							L335.3,263.54z" class="st17"></path>
						<path d="M339.65,265.69l-4.53-0.52l0.85-7.34c0.15-1.25,1.28-2.15,2.53-2l0,0c1.25,0.14,2.15,1.28,2,2.53
							L339.65,265.69z" class="st17"></path>
					</g>
				</g>
				<g>
					<path d="M226.31,392.16c-14.24,6.23-14.6,59.95-13.92,96.77c0.13,6.9,7.77,11.86,14.31,9.69
						c3.56-1.18,8.48-32.58,8.48-32.58S246.74,383.22,226.31,392.16z" class="st17"></path>
					<g>
						<path d="M220,478.9c-6.58,3.17-7.53,6.47-7.39,13.77c0.48,25.06,14.64,66.11,14.64,66.11l8.25-3.34l-1.45-53.85
							C234.05,501.6,233.37,472.46,220,478.9z" class="st17"></path>
						<g>
							<path d="M239.25,553.52l5.6,7.83c0,0,0.53,7.11,1,10.12c0.48,3.02,0.6,5.12,0.6,5.12s-0.88,0.51-2.03-1.05
								s-2.46-5.38-2.28-6.08c0.18-0.69-3.38,6.46-3.38,6.46l-7.11-1.28c0,0-4.31,1.01-5.01-2.29c-0.7-3.3-1.24-0.4-1.72-6.53
								c-0.48-6.13,0.31-7.6,1.29-9.12c0.99-1.52,2.07-3.82,2.48-6.53c0.41-2.71-7.35-39.95-7.35-39.95l10.52,28.27L239.25,553.52z" class="st17"></path>
							<path d="M242.08,576.49c-0.01,0.47-0.04,0.97-0.31,1.35c-0.5,0.71-1.92,0.58-2.51-0.05
								c-0.6-0.63-0.57-1.9-0.76-2.82c-0.11,0.64,0.29,2.58-0.42,3.13c-0.52,0.4-2.26,0-2.59-0.57c-0.33-0.57-0.34-1.64-0.4-2.56
								c0.01,0.88-0.56,2.65-1.28,2.64c-0.84-0.01-1.79,0.14-2.33-0.64c-0.55-0.78-0.6-1.82-0.65-2.77
								c0.08,1.09-0.55,2.77-1.27,3.16c-0.72,0.38-1.33,0.28-2.07-0.08c-1.14-0.55-1.7-1.83-2.06-3.04
								c-1.38-4.57-1.26-8.67-0.66-13.41c0.15-1.15,3.15-7.5,3.93-8.36c0.9-0.99-0.44,3.08,0.87,3.36c1.31,0.28,2.47,1.04,3.56,1.83
								c2.22,1.64,4.28,3.54,5.84,5.82c1.28,1.87,3.31,2.97,3.67,5.22c0.15,0.93,0.05,1.03,0.12,1.93
								C242.86,572.02,242.13,575.09,242.08,576.49z" class="st17"></path>
						</g>
					</g>
				</g>
				<path d="M225.62,385.43c0,0,32.07-8.69,38.64-3.77c15.08,11.31,10.33,7.24,23.56,36.75
					c13.23,29.51,1.89,96.12,1.89,96.12l-62.2-13.19c0,0,21.03-51.72,12.89-61.9c-8.14-10.18-21.37-37.66-21.37-37.66L225.62,385.43
					z" class="st19"></path>
				
					<rect height="34.59" width="46.18" class="st19" transform="matrix(0.717 -0.6971 0.6971 0.717 -199.0964 307.3666)" y="381.58" x="255.89"></rect>
				<path d="M297.17,423.42c1.3,2.18,2.54,4.59,2.36,7.13c-0.34,4.76-5.25,7.65-9.56,9.7
					c-1.12,0.53-2.5,1.05-3.53,0.35c-0.67-0.46-0.94-1.3-1.16-2.08c-2.14-7.53-7.91-26-1.9-31.95
					C289.07,410.72,293.58,417.4,297.17,423.42z" class="st19"></path>
				<g>
					<path d="M238.04,363.59l-5.46,13.97c-0.86,6,8.3,10.79,15.35,11.4c4.7,0.41,7.2-0.54,7.2-0.54
						c3.76-1.7,4.59-3.77,4.8-6.53l2.8-36.5l-17.32-1.03L238.04,363.59z" class="st20"></path>
					<path d="M252.62,318.49c13.91,9.41,20.99,28.06,16.84,44.4c-0.85,3.34-2.79,7.11-6.19,7.36
						c-0.97,0.07-1.93-0.17-2.87-0.44c-15.61-4.45-28.64-17.31-33.4-32.97c-1.16-3.82-1.85-7.99-0.58-11.77
						c1.32-3.92,4.66-6.93,8.49-8.41C240.6,314.47,247.52,315.04,252.62,318.49z" class="st17"></path>
					<g>
						<path d="M270.42,333.14c0.8,1.43,1.52,3.3,0.51,4.59c-1.02,1.31-3.16,1-4.51,0.02
							c-1.34-0.98-2.27-2.45-3.61-3.44c-2.09-1.53-4.85-1.67-7.43-1.93c-4.91-0.5-10.07-1.83-13.38-5.49
							c-6.59-7.29-0.81-16.33,8.18-13.06C259.02,317.06,265.96,325.16,270.42,333.14z" class="st16"></path>
						<path d="M210.75,355.28c-14.96,8.92-20.77,27.75-22.05,45.13c-0.9,12.14-0.15,24.61,4.22,35.98
							c4.37,11.36,12.67,21.55,23.85,26.37c11.18,4.82,25.26,3.47,34.19-4.79c5.67-5.24,8.68-14.85,3.47-20.55
							c7.65,2.32,16.62-0.78,21.21-7.32c4.59-6.54,4.44-16.03-0.34-22.43c-6.73-9-20.88-11.67-24.59-22.27
							c-3.84-10.98,6.2-21.5,9.55-32.64c2.96-9.84,4.05-24.61-2.14-32.81C240.69,296.85,198.44,327.79,210.75,355.28z" class="st16"></path>
					</g>
				</g>
			</g>
			<g>
				<g>
					<polygon points="154.62,598.33 119.24,581.78 106.13,602.65 102.27,612.93 118.34,596.89 148.24,609.79" class="st21"></polygon>
					<path d="M113.92,581.14l-11.86,23.8l-2.27,9.92c0,0,1.34,1.16,2.23,0.58c2.69-1.72,8.31-10.66,8.31-10.66
						s-2.38,0.34-2.63-1.05c-0.26-1.38,6.44-13.15,8.49-15.86c3.52-4.67,5.9-5.5,5.56-5.88
						C120.85,581.01,113.92,581.14,113.92,581.14z" class="st16"></path>
				</g>
				<linearGradient y2="551.6999" x2="239.0634" y1="664.6099" x1="242.8022" gradientUnits="userSpaceOnUse" id="SVGID_3_">
					<stop style="stop-color:#F4C846" offset="1.201900e-04"></stop>
					<stop style="stop-color:#F3AB44" offset="0.9974"></stop>
				</linearGradient>
				<path d="M259.07,508.41l4.24,139.87c0,0-33.2,31.59-25.02-14.95c1.49-8.5-12.59-42.44-19.74-83.45
					c-3.51-20.13-0.51-26.92,8.95-49C230.33,494.28,259.07,508.41,259.07,508.41z" class="st22"></path>
				
					<linearGradient gradientTransform="matrix(-0.359 0.9333 -0.9333 -0.359 297.0696 1147.0383)" y2="252.0114" x2="-448.6864" y1="346.1433" x1="-445.5695" gradientUnits="userSpaceOnUse" id="SVGID_4_">
					<stop style="stop-color:#F4C846" offset="1.201900e-04"></stop>
					<stop style="stop-color:#F3AB44" offset="0.9974"></stop>
				</linearGradient>
				<path d="M229.83,658.89l-91.27-50.46l7.47-15.37c0,0,79.84,23.1,120.35,47.44c3.5,2.1-1.03,8.22-6.77,14.1
					C251.8,662.58,239.59,664.29,229.83,658.89z" class="st23"></path>
			</g>
			<g>
				<linearGradient y2="535.959" x2="267.2689" y1="638.6127" x1="302.5817" gradientUnits="userSpaceOnUse" id="SVGID_5_">
					<stop style="stop-color:#F4C846" offset="0.2227"></stop>
					<stop style="stop-color:#F3AB44" offset="0.8426"></stop>
				</linearGradient>
				<path d="M288.28,507.47c0,0,28.62,147.75,28.62,149.95c0,2.2-26.89,3.39-26.89,3.39l-51.2-118.01
					c0,0-3.77-12.72,0.47-28.74c1.34-5.06,7.07-18.85,7.07-18.85L288.28,507.47z" class="st24"></path>
				<g>
					<polygon points="202.78,604.28 167.39,587.73 154.29,608.6 150.43,618.88 166.5,602.84 196.4,615.74" class="st21"></polygon>
					<path d="M162.08,587.09l-11.86,23.8l-2.27,9.92c0,0,1.34,1.16,2.23,0.58c2.69-1.72,8.31-10.66,8.31-10.66
						s-2.38,0.34-2.63-1.05c-0.26-1.38,6.44-13.14,8.49-15.86c3.52-4.67,5.9-5.5,5.56-5.88
						C169.01,586.96,162.08,587.09,162.08,587.09z" class="st16"></path>
				</g>
				
					<linearGradient gradientTransform="matrix(-0.3287 0.9444 -0.9444 -0.3287 401.0703 1041.1656)" y2="217.957" x2="-349.1032" y1="296.0541" x1="-322.2378" gradientUnits="userSpaceOnUse" id="SVGID_6_">
					<stop style="stop-color:#F4C846" offset="0.2227"></stop>
					<stop style="stop-color:#F3AB44" offset="0.8426"></stop>
				</linearGradient>
				<path d="M300.14,681.49c-18.05-1.72-116.06-71.35-116.06-71.35l4.38-12.57c0,0,75.49,19.45,92.68,31.57
					c14.68,10.35,36.12,26.6,36.12,26.6S324.66,683.82,300.14,681.49z" class="st25"></path>
			</g>
			<g>
				<linearGradient y2="479.5423" x2="268.8885" y1="442.5205" x1="282.3239" gradientUnits="userSpaceOnUse" id="SVGID_7_">
					<stop style="stop-color:#F4C846" offset="1.201900e-04"></stop>
					<stop style="stop-color:#F3AB44" offset="0.9974"></stop>
				</linearGradient>
				<polygon points="230.8,492.16 291.11,504.17 289.7,514.54 227.5,501.35" class="st26"></polygon>
			</g>
		</g>
		<g>
			<g>
				<g>
					<path d="M886.71,556.99c0,0-9.7,38.94-8.4,65.4c1.3,26.46,1.94,37.23,6.78,41.15c4.84,3.92,13.51,6.34,26.43-1.41
						c4.9-2.94,25.67-88.77,24.41-105.38C934.68,540.14,886.71,556.99,886.71,556.99z" class="st27"></path>
					<path d="M905.83,626.77c9.48-5.8,20.13-9.34,30.44-13.5c10.31-4.16,20.59-9.15,28.31-17.15
						c3.2-3.33,6.54-7.44,11.16-7.52c4.5-0.08,8.05,3.84,10.1,7.84c2.05,4,3.37,8.52,6.52,11.74c2.49,2.54,5.87,3.98,8.99,5.68
						c7.27,3.96,13.57,9.69,18.19,16.56c-1.08,1.49-3.39,1.49-5.01,0.62c-1.62-0.86-2.81-2.35-4.2-3.55
						c-7.54-6.48-19.91-3.85-27.73-9.98c-2.86-2.24-5.48-5.76-9.1-5.4c-2.09,0.21-3.79,1.72-5.32,3.17
						c-20.1,19.05-39.68,40.06-65.42,50.28c-3.31,1.31-6.93,2.45-10.38,1.57c-8.07-2.05-10.24-12.5-6.81-18.94
						C890.3,639.31,897.27,632,905.83,626.77z" class="st27"></path>
				</g>
				<g>
					<g>
						<path d="M967.22,614.31l13.89-0.65c3.32-1.39,5.55-5.65,9.02-4.67c3.83,1.08,9.56,3,16.48,7.3
							c-0.26-12.56-16.74-18.25-27.02-20.73c-5.01-1.21-10.42-2.17-14.99,0.21l-9.48,7.53L967.22,614.31z" class="st27"></path>
					</g>
					<path d="M1001.28,606.92c-8.21-7.83-16.85-15.21-25.86-22.1c-1.9-1.45-3.82-2.89-5.66-4.4
						c-0.31,0.55-0.65,1.12-1.05,1.72c-3.34,5.07-4.11,13.62-4.11,13.62s6.66-0.17,11.14,4.76c4.47,4.93,1.26,10.93,3.02,14.08
						c1.63,2.91,16.34,8.95,39.58,17.19c-0.22-1.64-0.39-3.24-0.78-4.55C1015.07,618.95,1007.33,612.69,1001.28,606.92z" class="st28"></path>
					<path d="M1019.49,619.73c-5.4-7.24-40.02-41.4-43.76-43.83c-3.3-2.15-3.64,0.41-5.97,4.53
						c1.85,1.51,3.77,2.95,5.66,4.4c9.01,6.89,17.65,14.27,25.86,22.1c6.05,5.77,13.79,12.03,16.27,20.32
						c0.39,1.3,0.57,2.91,0.78,4.55c0.82,0.29,1.65,0.59,2.5,0.88c1.71,0.6,3.45-0.84,3.15-2.64
						C1023.53,627.37,1022.37,623.6,1019.49,619.73z" class="st29"></path>
					<path d="M994.62,622.84c-0.12-0.2-0.47,0.1-0.3,0.25c-0.42-0.46-0.43-1.15-0.37-1.77
						c0.18-1.85,0.75-3.67,1.66-5.29" class="st30"></path>
					<path d="M991.02,622.93c-0.34-1-0.16-2.1,0.1-3.12c0.5-1.96,1.27-3.84,2.29-5.58" class="st30"></path>
					<path d="M988.22,621.65c-0.07-2.77,0.62-5.56,1.98-7.97" class="st30"></path>
					<path d="M986.05,620.48c-0.67-2.6-0.35-5.44,0.87-7.83" class="st30"></path>
				</g>
			</g>
			<g>
				<g>
					<g>
						<path d="M966.86,510.95c0,0,10.55,9.07-16.42,14.75c-26.98,5.68-39.88,4.66-39.88,4.66l0.59-11.3l31.53-11.77
							C942.69,507.28,960.75,503.97,966.86,510.95z" class="st1"></path>
						<path d="M926.87,427.16c1.04,8.57,3.2,16.96,5.36,25.32c3.02,11.71,6.05,23.41,9.07,35.12
							c1.6,6.18,3.2,12.37,5.11,18.46c1.5,4.77,3.37,9.72,7.22,12.92s10.28,3.82,13.54,0.03c2.78-3.23,2.27-8.05,1.48-12.24
							c-0.87-4.61-1.88-9.19-3.04-13.73c-4.39-17.27-10.84-34.01-14.3-51.48c-1.96-9.89-2.82-25.39-11.76-31.99
							C928.53,401.43,926.07,420.59,926.87,427.16z" class="st1"></path>
					</g>
					<g>
						<path d="M858.77,224.32l-15.82,3.22l1.57,77.62l2.13,1.83c5.13,4.41,13.06,2.7,15.92-3.43l4.28-5.02
							L858.77,224.32z" class="st1"></path>
						<g>
							<path d="M863.55,205.79c0,0-0.72,7.86-1.8,12.31c-1.08,4.45-2.98,6.22-2.98,6.22l-15.82,3.22
								c0,0-2.8-10.69-2.94-14.85c-0.14-4.16-0.16-4.9,1.27-6.17c1.43-1.27,16.56-3.24,18.77-3.07
								C862.26,203.62,863.55,205.79,863.55,205.79z" class="st1"></path>
							<path d="M857.38,206.14l5.99,0.75l1.32-10.49c0.21-1.65-0.96-3.16-2.61-3.37l0,0c-1.65-0.21-3.16,0.96-3.37,2.62
								L857.38,206.14z" class="st1"></path>
							<path d="M839.88,212.45l5.32,0.21l0.41-10.19c0.06-1.47-1.08-2.71-2.55-2.77l0,0c-1.47-0.06-2.71,1.08-2.77,2.55
								L839.88,212.45z" class="st1"></path>
							<path d="M851.42,208.16l6.73,0.31l0.43-9.48c0.08-1.86-1.35-3.44-3.21-3.52l0,0c-1.86-0.08-3.44,1.35-3.52,3.21
								L851.42,208.16z" class="st1"></path>
							<path d="M845.22,209.95l6.05,0.37l0.6-9.81c0.1-1.67-1.17-3.11-2.84-3.21l0,0c-1.67-0.1-3.11,1.17-3.21,2.84
								L845.22,209.95z" class="st1"></path>
						</g>
						<path d="M862.48,177.89l2.29,17.89l-5.8-1.6c0,0,0.06-15.28,0.72-17.11c1.35-3.72,2.5-2.1,2.5-2.1L862.48,177.89z" class="st1"></path>
					</g>
					<g>
						<g>
							<path d="M955.3,450l13.77,47.74l-27.02,8.05c0,0-5.33-20.85-5.43-24.73c-0.1-3.87-9.3-32.73-11.64-37.96
								c-2.33-5.22-13.56-40.69,3.04-42.63C950.91,397.8,955.3,450,955.3,450z" class="st31"></path>
							<path d="M876.86,380.63l-8.78-98.35l0.04-5.72l-28.15,1.47c0,0,7.69,75.91,8.9,79.59
								c1.2,3.68,3.86,35.51,3.42,41.22c-0.44,5.7,0.61,34.25,19.39,31.52C890.45,427.62,876.86,380.63,876.86,380.63z" class="st31"></path>
							<path d="M901.44,394.33c0,0-31.17-0.79-37.8,1.68c-6.63,2.46-18.37-4.9,0.73,57.89
								c6.74,22.17-1.04,49-7.59,63.09c-6.55,14.09-7.03,26.85-7.03,26.85l88.54-1.61c0,0-10.25-34.7-9.52-56.58
								c0.73-21.89,16.67-65.69,15.67-70.53C940.54,396.01,907.51,394.54,901.44,394.33z" class="st31"></path>
						</g>
						<g>
							<defs>
								<path d="M932.12,464.13c2.41,7.8,4.46,15.12,4.5,16.94c0.09,3.88,5.43,24.73,5.43,24.73l27.02-8.05
									L955.3,450c0,0-3.96-46.99-23.93-49.49c-11.25-5.39-26.06-6.05-29.93-6.18c0,0-11.12-0.28-21.49,0.02
									c-1.37-7.78-3.08-13.72-3.08-13.72l-8.78-98.35l0.04-5.72l-28.15,1.47c0,0,7.69,75.91,8.9,79.59
									c1.2,3.68,3.86,35.51,3.42,41.22c-0.24,3.07-0.04,12.79,3.14,20.67c1.52,8.11,4.32,19.18,8.95,34.39
									c6.74,22.17-1.04,49-7.59,63.09c-6.55,14.09-7.03,26.85-7.03,26.85l88.54-1.61c0,0-10.25-34.7-9.52-56.58
									C928.98,479.69,930.31,472.1,932.12,464.13z" id="SVGID_23_"></path>
							</defs>
							<clipPath id="SVGID_8_">
								<use style="overflow:visible;" xlink:href="#SVGID_23_"></use>
							</clipPath>
						</g>
					</g>
				</g>
				<g>
					<g>
						<path d="M847.97,577.73c0,0-13.71,37.71-15.18,64.16c-1.47,26.45-1.96,37.22,2.45,41.63
							c4.41,4.41,14.2,8.33,19.1,5.39c4.9-2.94,42.12-89.63,42.61-106.28C897.44,565.97,847.97,577.73,847.97,577.73z" class="st1"></path>
						<path d="M867.89,646.61c10.32-6.27,21.9-10.09,33.11-14.57s22.4-9.87,30.81-18.54c3.49-3.6,7.13-8.06,12.15-8.13
							c4.89-0.07,1.43,25.16-2.5,25.53c-2.28,0.22-4.12,1.86-5.79,3.43c-21.89,20.63-43.24,43.4-71.23,54.42
							c-3.6,1.42-7.54,2.64-11.28,1.67c-8.76-2.26-11.09-13.61-7.34-20.6C850.98,660.19,858.58,652.27,867.89,646.61z" class="st1"></path>
					</g>
					<g>
						<g>
							<path d="M936.42,630.7l13.89-0.65c3.32-1.39,5.55-5.65,9.02-4.67c3.83,1.08,9.56,3,16.48,7.3
								c-0.26-12.56-16.74-18.25-27.02-20.73c-5.01-1.21-10.42-2.17-14.99,0.21l-9.48,7.53L936.42,630.7z" class="st1"></path>
						</g>
						<path d="M970.48,623.31c-8.21-7.83-16.85-15.21-25.86-22.1c-1.9-1.45-3.82-2.89-5.66-4.4
							c-0.31,0.55-0.65,1.12-1.05,1.72c-3.34,5.07-4.11,13.62-4.11,13.62s6.66-0.17,11.14,4.76c4.47,4.93,1.26,10.93,3.02,14.08
							c1.62,2.91,16.34,8.95,39.58,17.19c-0.22-1.64-0.39-3.24-0.78-4.55C984.27,635.34,976.53,629.08,970.48,623.31z" class="st31"></path>
						<path d="M988.69,636.11c-5.4-7.24-40.02-41.4-43.76-43.83c-3.3-2.15-3.64,0.41-5.97,4.53
							c1.85,1.51,3.77,2.95,5.66,4.4c9.01,6.89,17.65,14.27,25.86,22.1c6.05,5.77,13.79,12.03,16.27,20.32
							c0.39,1.3,0.56,2.91,0.78,4.55c0.82,0.29,1.65,0.59,2.5,0.88c1.71,0.6,3.45-0.84,3.15-2.64
							C992.73,643.75,991.58,639.98,988.69,636.11z" class="st29"></path>
						<path d="M963.83,639.23c-0.12-0.19-0.47,0.1-0.3,0.25c-0.42-0.46-0.43-1.15-0.37-1.77
							c0.18-1.85,0.75-3.67,1.66-5.29" class="st30"></path>
						<path d="M960.22,639.32c-0.34-1-0.16-2.1,0.1-3.12c0.5-1.96,1.27-3.84,2.29-5.58" class="st30"></path>
						<path d="M957.43,638.04c-0.07-2.77,0.62-5.56,1.98-7.97" class="st30"></path>
						<path d="M955.25,636.86c-0.67-2.6-0.35-5.44,0.87-7.83" class="st30"></path>
					</g>
				</g>
				<g>
					<path d="M854.13,523.09c0,0-10.57,35.05-13.51,49.25c-2.94,14.2-3.43,22.53-3.43,22.53l50.94,18.12
						c0,0,17.14-12.73,24.49-22.53c7.35-9.8,14.69-27.43,13.22-38.2c-1.47-10.78-5.39-19.1-5.39-19.1L854.13,523.09z" class="st8"></path>
					<path d="M899.4,532.18l36.38,1.43c0,0,11.62,34.81,2.8,54.9c-7.28,16.59-13.71,28.9-13.71,28.9l-25.47-5.39V532.18
						z" class="st8"></path>
				</g>
			</g>
			<g>
				<g>
					<rect height="32.84" width="25.46" class="st1" y="370.12" x="891.59"></rect>
					<path d="M916.93,403.07c0,2.08-5.66,3.76-12.65,3.76c-6.98,0-12.65-1.68-12.65-3.76s5.66-3.76,12.65-3.76
						C911.27,399.31,916.93,401,916.93,403.07z" class="st1"></path>
				</g>
				<path d="M884.63,318.66c-3.77-2.09-8.43,0.86-11.04,4.29c-5.59,7.33-7.12,16.98-7.2,26.2
					c-0.05,6.05,1.38,13.41,7.11,15.37c-4.53,4.67-6.25,12.45-2.62,17.85c3.63,5.4,13.09,6.04,16.33,0.4
					c1.67,3.32,3.62,6.62,6.55,8.92c2.93,2.3,7.02,3.42,10.45,1.99c3.43-1.44,5.54-5.91,3.72-9.15c1.94,3.65,6.84,5.38,10.65,3.78
					c3.81-1.61,5.98-6.33,4.72-10.26c3.03,2.74,8.1,2.81,11.2,0.16c3.1-2.65,3.82-7.68,1.58-11.09c4.68,1.67,10.43-2.21,10.63-7.18
					c0.03-0.8-0.07-1.63-0.5-2.3c-0.63-0.97-1.81-1.41-2.71-2.13c-2.45-1.96-2.52-5.68-1.8-8.74c0.72-3.06,2-6.13,1.47-9.23
					c-1.01-5.92-7.92-8.95-10.39-14.42c-0.66-1.45-0.98-3.04-1.68-4.47c-1.92-3.92-6.29-5.96-10.47-7.25
					c-6.78-2.08-16.15-4.08-23.23-2.4C895.71,309.38,882.67,317.58,884.63,318.66z" class="st8"></path>
			</g>
		</g>
	</g>
	<path d="M596.13,836.41c-43,3.84-29.5,13.68-25.73,15.75c13.47,7.4,98.82,13.86,120.18,14.28
		c13.34,0.26,69.14-0.84,82.21-9.65C779.92,851.99,782.25,819.8,596.13,836.41z" class="st0"></path>
	<path d="M98.82,764.82c-34.92-7.95-27.9,4.85-25.7,7.79c7.86,10.51,72.13,39.42,88.65,45.54
		c10.31,3.82,54.23,17.75,67.58,13.04C236.62,828.63,249.93,799.23,98.82,764.82z" class="st0"></path>
	<path d="M331.94,892.37c-41.65,11.39-26.61,18.69-22.54,20.06c14.56,4.9,99.71-3.84,120.82-7.21
		c13.18-2.1,67.9-13.06,79.21-24.05C515.59,875.19,512.18,843.1,331.94,892.37z" class="st0"></path>
</g>
</svg>
