<?xml version="1.0" standalone="no"?><!DOCTYPE svg PUBLIC "-//W3C//DTD SVG 1.1//EN" "http://www.w3.org/Graphics/SVG/1.1/DTD/svg11.dtd"><svg t="1727271832512" class="icon" viewBox="0 0 1024 1024" version="1.1" xmlns="http://www.w3.org/2000/svg" p-id="1847" xmlns:xlink="http://www.w3.org/1999/xlink" width="200" height="200"><path d="M512 0a512 512 0 1 0 0 1024A512 512 0 0 0 512 0z m273.115429 446.025143a43.300571 43.300571 0 0 1-86.528 0v-68.534857L614.326857 461.824a216.210286 216.210286 0 1 1-61.074286-61.074286l84.260572-84.260571h-68.608a43.300571 43.300571 0 0 1 0-86.454857h172.909714c23.844571 0 43.300571 19.309714 43.300572 43.227428v172.763429zM342.308571 489.325714a129.682286 129.682286 0 1 0 183.442286 183.442286A129.682286 129.682286 0 0 0 342.308571 489.325714z" fill="#0097FF" p-id="1848"></path></svg>