<?xml version="1.0" standalone="no"?><!DOCTYPE svg PUBLIC "-//W3C//DTD SVG 1.1//EN" "http://www.w3.org/Graphics/SVG/1.1/DTD/svg11.dtd"><svg t="1727271828337" class="icon" viewBox="0 0 1024 1024" version="1.1" xmlns="http://www.w3.org/2000/svg" p-id="1688" xmlns:xlink="http://www.w3.org/1999/xlink" width="200" height="200"><path d="M512.021331 0A511.936008 511.936008 0 0 0 0 511.850685v0.170646a511.936008 511.936008 0 0 0 1023.872016 0.170645v-0.170645A511.936008 511.936008 0 0 0 512.021331 0z" fill="#FE2F58" p-id="1689"></path><path d="M584.374953 666.881973a227.811524 227.811524 0 0 1-118.598508-33.019872l-55.545057 55.630379 56.824897 56.824897a36.432779 36.432779 0 1 1-51.534892 51.534891l-56.824897-56.824896-63.138774 63.138774a36.432779 36.432779 0 0 1-51.534892-51.534892l63.138775-63.138774-69.452652-69.367329a36.432779 36.432779 0 0 1 51.534892-51.534891l69.452651 69.367329 51.449569-51.534892a228.835396 228.835396 0 1 1 174.228888 80.459276z" fill="#FFFFFF" p-id="1690"></path><path d="M584.374953 304.175311a133.956589 133.956589 0 0 0-133.956589 133.956589 133.956589 133.956589 0 0 0 133.956589 133.785944 133.956589 133.956589 0 0 0 133.871266-133.871266 133.956589 133.956589 0 0 0-133.956589-133.871267z" fill="#FE2F58" p-id="1691"></path></svg>