<?xml version="1.0" standalone="no"?><!DOCTYPE svg PUBLIC "-//W3C//DTD SVG 1.1//EN" "http://www.w3.org/Graphics/SVG/1.1/DTD/svg11.dtd"><svg t="1727334173108" class="icon" viewBox="0 0 1024 1024" version="1.1" xmlns="http://www.w3.org/2000/svg" p-id="1787" xmlns:xlink="http://www.w3.org/1999/xlink" width="200" height="200"><path d="M611.2 0l-152 288 280 96L939.2 0z" fill="#FFFFFF" p-id="1788"></path><path d="M611.2 0l-152 288 88 32 160-320z" fill="#2157CC" p-id="1789"></path><path d="M651.2 352l88 32L939.2 0h-96z" fill="#DF202A" p-id="1790"></path><path d="M419.2 0l152 288-280 96L91.2 0z" fill="#FFFFFF" p-id="1791"></path><path d="M419.2 0l152 288-88 32-160-320z" fill="#2378F1" p-id="1792"></path><path d="M379.2 352l-88 32L91.2 0h96z" fill="#F5222D" p-id="1793"></path><path d="M211.2 278.4l182.4 9.6 118.4-128 118.4 128 190.4-9.6-8 182.4 136 126.4-136 118.4 8 190.4-180.8-8-128 136-128-136-180.8 8 8-190.4-136-118.4 136-126.4-8-182.4z" fill="#F8D197" p-id="1794"></path><path d="M515.2 584m-232 0a232 232 0 1 0 464 0 232 232 0 1 0-464 0Z" fill="#E8A152" p-id="1795"></path><path d="M569.6 686.4l-54.4-32-54.4 32c-3.2 1.6-6.4 1.6-9.6 0-3.2-1.6-4.8-6.4-3.2-9.6l12.8-64-46.4-43.2c-3.2-3.2-4.8-6.4-3.2-9.6 1.6-3.2 4.8-6.4 8-6.4l62.4-6.4 25.6-59.2c1.6-3.2 4.8-6.4 8-6.4s6.4 3.2 8 6.4l25.6 59.2 62.4 6.4c3.2 0 6.4 3.2 6.4 6.4 1.6 3.2 0 8-1.6 9.6l-46.4 43.2 12.8 64c0 3.2 0 8-3.2 9.6-1.6 1.6-6.4 1.6-9.6 0z" fill="#F8D197" p-id="1796"></path></svg>