<?xml version="1.0" standalone="no"?><!DOCTYPE svg PUBLIC "-//W3C//DTD SVG 1.1//EN" "http://www.w3.org/Graphics/SVG/1.1/DTD/svg11.dtd"><svg t="1727189285480" class="icon" viewBox="0 0 1024 1024" version="1.1" xmlns="http://www.w3.org/2000/svg" p-id="9359" xmlns:xlink="http://www.w3.org/1999/xlink" width="200" height="200"><path d="M519.3728 277.2992a144.7936 144.7936 0 0 1 101.1712 33.9968 115.9168 115.9168 0 0 1 38.5024 92.16A127.7952 127.7952 0 0 1 634.88 482.0992c-5.7344 6.3488-24.3712 23.7568-55.0912 50.5856a102.4 102.4 0 0 0-25.6 31.9488 91.3408 91.3408 0 0 0-9.6256 40.96V614.4H471.04v-8.192a134.9632 134.9632 0 0 1 12.9024-62.6688 344.4736 344.4736 0 0 1 74.752-81.92l7.7824-9.0112a73.3184 73.3184 0 0 0 0-95.232 69.2224 69.2224 0 0 0-51.2-18.0224 66.9696 66.9696 0 0 0-60.2112 26.2144 105.0624 105.0624 0 0 0-16.1792 64.512h-73.1136a146.432 146.432 0 0 1 40.96-111.4112 153.6 153.6 0 0 1 112.0256-40.96z m-11.4688 368.64a50.5856 50.5856 0 0 1 35.84 13.5168 49.3568 49.3568 0 0 1 0 69.8368 49.9712 49.9712 0 0 1-35.2256 13.312 49.3568 49.3568 0 0 1-35.2256-14.1312 49.7664 49.7664 0 0 1 0-69.0176 49.152 49.152 0 0 1 35.2256-13.5168z m0 0" fill="#F7CE21" p-id="9360"></path><path d="M512 19.2512a491.52 491.52 0 1 0 491.52 491.52 491.52 491.52 0 0 0-491.52-491.52z m0 870.4a378.88 378.88 0 1 1 378.88-378.88A378.88 378.88 0 0 1 512 889.6512z" fill="#F7CE21" p-id="9361"></path></svg>