<?xml version="1.0" standalone="no"?><!DOCTYPE svg PUBLIC "-//W3C//DTD SVG 1.1//EN" "http://www.w3.org/Graphics/SVG/1.1/DTD/svg11.dtd"><svg t="1727336370005" class="icon" viewBox="0 0 1024 1024" version="1.1" xmlns="http://www.w3.org/2000/svg" p-id="4042" xmlns:xlink="http://www.w3.org/1999/xlink" width="200" height="200"><path d="M601.158621 0L450.206897 291.310345 728.275862 388.413793 926.896552 0z" fill="#FFFFFF" p-id="4043"></path><path d="M601.688276 0L450.206897 286.013793l87.710896 31.77931L697.37931 0z" fill="#2157CC" p-id="4044"></path><path d="M644.413793 356.051862L730.729931 388.413793 926.896552 0h-94.155035z" fill="#DF202A" p-id="4045"></path><path d="M405.186207 0L556.137931 291.310345 278.068966 388.413793 79.448276 0z" fill="#FFFFFF" p-id="4046"></path><path d="M404.656552 0L556.137931 286.013793 468.427034 317.793103 308.965517 0z" fill="#2378F1" p-id="4047"></path><path d="M361.931034 356.051862L275.614897 388.413793 79.448276 0h94.155034z" fill="#F5222D" p-id="4048"></path><path d="M214.121931 277.451034l180.630069 9.604414L512 158.896552l117.248 128.176551 188.557241-9.622069-7.944827 182.625104L944.551724 586.646069l-134.673655 118.554483 7.927172 190.640551-179.058758-8.015448L512 1024l-126.764138-136.174345-179.023448 8.015448 7.909517-190.640551L79.448276 586.646069l134.673655-126.569931-7.927172-182.625104z" fill="#DFE8ED" p-id="4049"></path><path d="M273.655172 582.62069c0 126.764138 102.753103 229.517241 229.517242 229.517241s229.517241-102.753103 229.517241-229.517241-102.753103-229.517241-229.517241-229.517242-229.517241 102.753103-229.517242 229.517242z" fill="#C2CBD4" p-id="4050"></path><path d="M559.457103 687.315862l-55.490206-32.909241-55.490207 32.909241a10.328276 10.328276 0 0 1-9.798621 0c-3.248552-1.641931-4.890483-6.585379-3.248552-9.886896l13.064828-65.800828-47.351173-44.438069c-3.266207-3.283862-4.890483-6.585379-3.266206-9.869241 1.641931-3.283862 4.908138-6.585379 8.156689-6.58538l63.664552-6.585379 26.112-60.875035c1.624276-3.301517 4.890483-6.585379 8.15669-6.585379s6.532414 3.283862 8.156689 6.585379l26.129655 60.875035 63.646897 6.585379c3.266207 0 6.532414 3.301517 6.532414 6.58538 1.624276 3.283862 0 8.22731-1.641931 9.886896l-47.315862 44.420414 13.047172 65.818483c0 3.283862 0 8.22731-3.266207 9.886896-1.624276 1.624276-6.532414 1.624276-9.798621 0z" fill="#DFE8ED" p-id="4051"></path></svg>