<?xml version="1.0" standalone="no"?><!DOCTYPE svg PUBLIC "-//W3C//DTD SVG 1.1//EN" "http://www.w3.org/Graphics/SVG/1.1/DTD/svg11.dtd"><svg t="1727272720266" class="icon" viewBox="0 0 1024 1024" version="1.1" xmlns="http://www.w3.org/2000/svg" p-id="3925" xmlns:xlink="http://www.w3.org/1999/xlink" width="200" height="200"><path d="M174.4 891.264c95.488-62.4 227.456-62.4 227.456-62.4s-5.888 13.248 0 28.8c14.144-19.264 28.288-39.616 31.808-50.368 2.368-8.384 3.584-32.384-4.672-106.752-60.16-32.384-106.112-98.24-122.624-177.408a17.792 17.792 0 0 1-4.736 9.6c-3.456 3.584-5.824 4.736-8.256 4.736-7.04 0-11.776-9.536-22.4-32.32l-5.824-10.816c-17.728-34.752-3.584-59.904 8.192-80.32 1.216-1.152 2.368-3.584 4.8-3.584 3.52 0 9.408 5.952 15.296 17.984-18.88-56.384-56.576-194.24 20.032-278.144 31.808-33.6 146.112-80.32 146.112-80.32s-22.4 28.8-25.92 38.4c-3.52 10.752 14.144-2.496 14.144-2.496s30.656-15.552 54.208-28.8c23.552-13.184 36.544-8.384 25.92 0-10.624 8.384-7.04 15.616-7.04 15.616s42.496 1.216 73.152 3.584c30.656 2.432 87.168 20.352 115.52 45.568 28.224 25.216 52.992 74.368 57.664 110.336 9.408 58.752-16.448 124.672-30.656 157.12 2.368-2.432 5.952-1.216 7.04 2.368 11.84 20.416 27.136 45.568 9.472 81.536l-4.736 10.816c-11.776 22.72-16.448 32.32-23.552 32.32-2.368 0-4.672-1.216-8.256-4.8a19.648 19.648 0 0 1-3.584-7.168c-17.664 81.536-65.984 148.736-128.512 178.688-2.304 77.888 0 103.04 3.584 110.336 3.584 7.168 15.296 21.568 30.656 35.968 2.304-12.032-2.432-21.632-2.432-21.632s136.832 0 231.04 64.768a510.208 510.208 0 0 0 170.944-381.312c0-281.728-227.584-509.568-506.88-509.568S4.608 229.44 4.608 511.168c1.216 152.192 66.048 287.744 169.792 380.096z" fill="#C2C7CB" p-id="3926"></path><path d="M583.296 816.896c-4.608-11.968-5.888-47.936-3.52-112.704v-3.648l3.52-1.152c60.096-28.8 107.328-94.72 124.928-173.888l4.736-20.416 7.104 19.2c1.152 2.368 2.304 3.584 2.304 4.8 2.368 2.368 3.52 2.368 3.52 2.368 3.584 0 10.624-16.768 17.664-28.8l4.736-10.752c16.512-32.384 3.584-55.168-8.256-74.368-1.216 1.216-7.04 8.384-15.296 28.8l-4.672 12.032-2.432-3.648c-5.888 15.616-14.144 33.6-17.6 41.984-8.32 13.184-15.36 0-15.36 0s10.624-40.768 10.624-51.584c0-10.752 4.736-43.136 9.408-67.136 4.736-24-4.672-53.952-24.768-67.136-19.968-13.12-81.28-39.488-124.864-46.72-44.736-7.168-123.776-10.752-142.592-2.368-17.728 8.384-71.872 32.384-81.344 47.936-9.472 15.616-15.296 65.984-12.992 82.752 2.368 16.832 12.992 97.152 12.992 97.152s-3.52 8.384-8.256 0a122.944 122.944 0 0 1-16.512-28.8v14.4l-12.992-31.168c-7.04-17.984-11.776-24-14.144-26.368-11.712 20.352-24.704 41.92-8.192 74.304l4.672 10.752c5.952 13.248 14.144 28.8 17.664 28.8 0 0 1.216 0 3.584-2.368 1.216-1.216 2.368-2.432 3.52-7.232l7.04-22.784 4.736 24c16.512 77.952 61.312 142.656 119.04 173.888l2.368 1.216v3.648c7.104 61.184 8.256 97.152 4.736 109.056-3.52 12.032-18.816 33.536-34.176 54.016 10.624 16.768 37.696 33.536 104.896 39.552 75.392-6.016 100.224-27.584 107.2-45.568-15.232-18.048-29.44-32.448-33.024-42.048z" fill="#FFFFFF" p-id="3927"></path><path d="M728.32 430.784c-1.216 2.432-4.672 12.032-9.344 24l2.304 3.648 4.672-12.032c8.256-20.352 12.992-26.432 15.36-28.8 11.84 20.352 24.768 43.2 8.256 74.368l-4.736 10.752c-5.888 13.248-14.208 28.8-17.664 28.8 0 0-1.216 0-3.52-2.368-1.216-1.216-1.216-2.432-2.368-4.8l-7.04-19.2-4.672 20.416c-17.728 79.104-63.68 145.088-124.992 173.888l-3.52 1.152v3.648c-2.304 64.768-1.216 101.888 3.52 112.704 3.584 9.6 17.728 24 34.24 40.832 1.152-2.368 1.152-4.8 2.304-7.232-14.144-14.4-27.072-28.736-30.656-35.968s-5.952-32.384-3.584-110.336c62.528-30.016 110.784-97.152 128.512-178.624 1.216 3.584 2.304 4.8 3.584 7.168 3.52 3.584 5.888 4.736 8.192 4.736 7.04 0 11.84-9.536 23.616-32.32l4.672-10.816c17.664-35.968 3.52-61.12-9.408-81.472-2.368-3.584-4.672-3.584-7.04-2.432a187.904 187.904 0 0 1-10.688 20.288zM404.224 863.68c15.296-20.416 30.656-41.984 34.176-54.016 3.52-11.968 2.368-47.936-4.736-109.12v-3.584l-2.368-1.216c-57.792-31.168-102.528-95.936-119.04-173.888l-4.672-23.936-7.04 22.784a19.52 19.52 0 0 1-3.584 7.232c-2.304 2.432-3.584 2.432-3.584 2.432-3.52 0-10.624-15.616-17.664-28.8l-4.672-10.816c-16.512-32.32-3.52-55.104 8.192-74.368 2.368 2.432 7.104 8.448 14.144 26.432l12.992 31.168v-14.4l-3.52-7.168c-1.216-2.432-4.736-12.032-9.472-24-5.824-12.032-10.56-17.984-15.232-17.984-2.432 0-3.584 2.368-4.736 3.584-11.84 20.416-25.984 45.568-8.256 80.32l5.888 10.816c10.56 22.784 16.512 32.32 22.336 32.32 2.368 0 4.736-1.216 8.256-4.8a17.792 17.792 0 0 0 4.736-9.6c16.512 79.168 62.464 146.304 122.56 177.408 8.256 73.216 7.104 98.368 4.736 106.752-3.52 10.752-17.664 31.104-31.808 50.368 0 2.432 1.152 3.648 2.368 6.08z" fill="#FCC461" p-id="3928"></path><path d="M301.632 453.632l3.584 7.168c5.888 11.968 12.928 21.568 16.448 28.736 5.952 8.384 8.256 0 8.256 0s-9.408-80.256-12.928-97.088c-2.368-16.768 3.52-67.136 12.992-82.752 9.408-15.552 63.616-40.704 81.28-47.936 17.664-8.384 97.792-4.8 142.592 2.432 44.8 7.168 104.96 32.384 124.928 46.784 19.968 13.184 29.44 43.136 24.768 67.136-4.736 24-9.408 56.32-9.408 67.136 0 10.816-10.56 51.584-10.56 51.584s8.192 13.184 15.232 0c4.736-7.232 11.904-26.432 17.728-41.984 4.672-11.968 8.256-21.568 9.344-24 1.216-1.216 4.672-8.384 9.408-19.2 14.208-32.32 40.128-98.304 30.656-157.056-5.952-35.968-29.504-85.12-57.792-110.336-28.16-25.152-84.736-43.136-115.328-45.568-30.656-2.432-73.088-3.584-73.088-3.584s-3.584-7.232 7.04-15.552c10.56-8.448-3.584-13.248-25.92 0-23.552 13.12-54.208 28.736-54.208 28.736s-17.664 13.184-14.208 2.368c3.584-10.816 25.984-38.4 25.984-38.4s-114.368 45.632-146.176 80.384c-76.544 82.752-40.064 220.608-20.032 278.144 4.736 10.816 8.256 19.2 9.408 22.848zM618.752 850.432a16.768 16.768 0 0 1-2.432 7.232c-7.04 17.92-33.024 39.552-107.2 45.504-67.136-4.736-94.272-22.72-104.896-39.488-1.216-2.432-2.368-3.648-3.584-6.016-5.888-15.552 0-28.8 0-28.8s-133.184 0-227.456 62.4a501.056 501.056 0 0 0 338.24 130.688c128.512 0 246.336-48 335.936-128.256-95.424-64.832-231.04-64.832-231.04-64.832s4.736 9.6 2.432 21.568z" fill="#FCDF65" p-id="3929"></path><path d="M512.64 26.752c266.432 0 483.2 218.24 483.2 485.568s-216.832 485.632-483.2 485.632S29.44 779.648 29.44 512.32 246.272 26.752 512.64 26.752m0-24C233.28 2.752 5.824 230.592 5.824 512.32c0 281.792 227.456 509.568 506.816 509.568s506.752-227.84 506.752-509.568C1019.456 230.592 792 2.752 512.64 2.752z" fill="#FCDF65" p-id="3930"></path></svg>