<svg
    t="1727014714935"
    class="icon"
    viewBox="0 0 1024 1024"
    version="1.1"
    xmlns="http://www.w3.org/2000/svg"
    p-id="9123"
    xmlns:xlink="http://www.w3.org/1999/xlink"
    width="200"
    height="200">
    <path
      d="M276.26496 555.95008c12.8 0 25.6 2.12992 36.26496 6.4 8.53504 4.27008 21.33504 12.8 32 23.47008l27.73504-29.87008c-25.6-27.72992-57.6-40.52992-93.86496-40.52992-36.26496 0-68.26496 12.8-93.86496 36.25984-23.46496 23.47008-36.26496 53.34016-36.26496 89.6 0 36.27008 12.8 66.14016 36.26496 89.6 23.46496 23.47008 53.33504 36.27008 89.6 36.27008s66.13504-14.92992 93.86496-42.67008l-25.6-32c-10.66496 10.67008-21.33504 17.07008-32 21.34016-8.53504 4.25984-21.33504 6.4-36.26496 6.4-21.33504 0-40.53504-8.54016-57.6-23.47008-14.93504-12.8-23.46496-32-23.46496-57.6s8.53504-44.8 23.46496-59.72992c17.05984-14.94016 36.25984-23.47008 59.72992-23.47008zM545.05984 617.82016c-23.47008-6.4-40.52992-10.67008-49.06496-17.07008-6.4-4.27008-10.66496-12.8-10.66496-21.32992 0-8.54016 2.13504-17.07008 10.66496-21.34016 6.4-4.25984 17.06496-6.4 29.86496-6.4 10.67008 0 23.47008 2.14016 34.12992 6.4 10.67008 4.27008 21.34016 8.54016 29.87008 14.94016l21.32992-32c-10.65984-8.54016-23.45984-17.07008-38.4-21.34016-14.92992-4.25984-29.85984-6.4-44.8-6.4-23.45984 0-44.79488 6.4-59.72992 19.2s-25.6 29.87008-25.6 51.2c0 21.34016 6.4 38.4 21.33504 49.07008 6.4 6.4 14.93504 10.67008 25.6 14.92992 10.66496 4.27008 23.46496 6.4 40.53504 12.8 17.05984 4.27008 29.85984 8.54016 36.25984 12.8 6.4 4.27008 10.67008 12.8 10.67008 21.34016 0 8.52992-4.27008 17.05984-10.67008 21.32992-6.4 6.4-17.05984 8.52992-29.85984 8.52992-25.6 0-51.2-10.65984-74.66496-32l-27.73504 32c29.86496 25.6 64 38.4 100.25984 38.4 25.6 0 46.94016-6.4 61.87008-19.2 17.07008-12.8 23.47008-29.85984 23.47008-51.2 0-21.32992-6.4-36.25984-19.2-49.05984-12.8-10.67008-32-19.2-55.47008-25.6zM856.52992 643.42016c-12.8-10.67008-32-19.2-55.47008-25.6s-40.52992-10.67008-49.07008-17.07008c-6.4-4.27008-10.65984-12.8-10.65984-21.32992 0-8.54016 4.25984-17.07008 10.65984-21.34016 6.4-4.25984 17.07008-6.4 27.74016-6.4 10.65984 0 23.45984 2.14016 36.25984 6.4 12.8 4.27008 21.34016 8.54016 27.74016 14.94016l21.32992-32c-10.67008-8.54016-23.47008-17.07008-38.4-21.34016-14.92992-4.25984-29.87008-6.4-44.8-6.4-23.47008 0-44.8 6.4-59.72992 19.2-14.94016 12.8-25.6 29.87008-25.6 51.2 0 21.34016 6.4 38.4 21.32992 49.07008 6.4 6.4 14.92992 10.67008 25.6 14.92992 10.67008 4.27008 23.47008 6.4 40.52992 12.8 17.07008 4.27008 29.87008 8.54016 36.27008 12.8 6.4 4.27008 10.67008 12.8 10.67008 21.34016 0 8.52992-4.27008 17.05984-10.67008 21.32992-6.4 6.4-17.07008 8.52992-29.87008 8.52992-25.6 0-51.2-10.65984-74.65984-32l-25.6 32c29.85984 25.6 64 38.4 100.25984 38.4 25.6 0 46.94016-6.4 61.87008-19.2 17.07008-12.8 23.47008-29.85984 23.47008-51.2 0-21.32992-6.4-36.25984-19.2-49.05984z"
      fill="#0061b0"
      p-id="9124"></path>
    <path
      d="M901.12 42.24H122.88c-45.24032 0-81.92 36.67968-81.92 81.92v778.24c0 45.24544 36.67968 81.92 81.92 81.92h778.24c45.24544 0 81.92-36.67456 81.92-81.92v-778.24c0-45.24032-36.67456-81.92-81.92-81.92z m30.72 860.16c0 16.94208-13.77792 30.72-30.72 30.72H122.88c-16.94208 0-30.72-13.77792-30.72-30.72v-778.24c0-16.94208 13.77792-30.72 30.72-30.72h778.24c16.94208 0 30.72 13.77792 30.72 30.72v778.24z"
      fill="#0061b0"
      p-id="9125"></path>
    <path
      d="M508.2112 157.44h-309.76a19.2 19.2 0 0 0 0 38.4h309.76a19.2 19.2 0 1 0 0-38.4zM672.5888 157.44h-104.75008a19.2 19.2 0 1 0 0 38.4h104.75008a19.2 19.2 0 0 0 0-38.4zM815.3088 157.44h-79.15008a19.2 19.2 0 1 0 0 38.4h79.15008a19.2 19.2 0 0 0 0-38.4z"
      fill="#0061b0"
      p-id="9126"></path>
    <path d="M76.8 256h880.64v46.08H76.8z" fill="#0061b0" p-id="9127"></path>
  </svg>