  <svg
    t="1727014274489"
    class="icon"
    viewBox="0 0 1024 1024"
    version="1.1"
    xmlns="http://www.w3.org/2000/svg"
    p-id="1827"
    xmlns:xlink="http://www.w3.org/1999/xlink"
    width="200"
    height="200">
    <path
      d="M188.16 164.864a100.864 100.864 0 1 1 201.6 0 100.864 100.864 0 0 1-201.6 0z m303.872 216.32a77.568 77.568 0 0 0-65.92-70.144l-71.232-10.432-44.416 101.888-5.76-50.24a3.072 3.072 0 0 0-3.008-2.816h-25.408a3.072 3.072 0 0 0-3.072 2.88l-5.184 51.456-44.992-103.168-71.168 10.432a77.568 77.568 0 0 0-65.984 70.08L64 634.24h69.76l11.712-170.688 15.488 116.416-7.744 116.352h15.488V960h93.12l15.04-263.744h16.384L308.352 960h93.056v-263.744h23.296L416.96 579.84l15.488-116.352 11.648 170.688h69.76l-21.76-253.056zM257.92 304.448c0 9.28 7.68 21.696 12.352 26.368 4.672 4.608 12.48 4.608 18.688 4.608 6.208 0 14.016 0 18.624-4.608 4.672-4.672 12.352-17.088 12.416-26.368 0-10.88-18.944-12.416-31.04-12.416s-31.04 1.536-31.04 12.416z m380.16-23.296c-49.216 0-95.488 12.352-135.936 34.176 9.984 12.032 17.536 26.24 21.824 41.792a239.872 239.872 0 1 1 114.048 450.944c-69.12 0-131.2-29.44-174.976-76.16v0.128l-25.728 41.216A287.04 287.04 0 1 0 638.08 281.216z m152.064 309.952a23.936 23.936 0 0 0-23.872-23.872H658.56v-155.52a23.936 23.936 0 0 0-47.872 0v155.52c0 26.368 21.504 47.808 47.872 47.808h107.648a23.936 23.936 0 0 0 23.872-23.936z"
      fill="#00D5BA"
      p-id="1828"></path>
  </svg>